/* XPM */
static char * MediaConch_xpm[] = {
"32 32 27 1",
" 	c None",
".	c #EC1F24",
"+	c #ED1F24",
"@	c #49BC39",
"#	c #48BB39",
"$	c #49BC38",
"%	c #3E4CA8",
"&	c #3D4CA8",
"*	c #110F0D",
"=	c #EC1E23",
"-	c #0C0A08",
";	c #595757",
">	c #282624",
",	c #6E6C6B",
"'	c #787776",
")	c #EDEDED",
"!	c #030100",
"~	c #100F0D",
"{	c #0B0907",
"]	c #575553",
"^	c #A1A0A0",
"/	c #110E0C",
"(	c #0F0D0B",
"_	c #757473",
":	c #181614",
"<	c #110E0D",
"[	c #464543",
"                                ",
"                                ",
"                                ",
"                                ",
"                                ",
"                                ",
"            .++++               ",
"              ++++++            ",
"                ++++++          ",
"     @@@@@#@     +++++++        ",
"   @@@@@@@@@@@    +++++++       ",
"  @@@@@@@@@@@@@    +++++++      ",
"          @@@@@$    +++++++     ",
"            @@@@@   ++++++++    ",
"  %%%%%%%%   @@@@    +++++++    ",
" &%%%%%%%%%   @@@@   ++++++++   ",
"        %%%%  @@@@   +++++++++  ",
"         %%%   @@@   +++++++++  ",
"  *****   %%%  @@@   +++++++++= ",
"  *-;>**  &%%  @@@   ++++++++++ ",
" **,')!*   %%   @@   ++++++++++ ",
" ~*{]^-**  %%   @    +++++++++++",
" /*(_:**<  &%   @   ++++++++++++",
" **([:**    %  @@   +++++  +++++",
"  *****        @    ++          ",
"    **                          ",
"                                ",
"                                ",
"                                ",
"                                ",
"                                ",
"                                "};
