<?xml version="1.0" encoding="UTF-8" standalone="no"?>
<svg
   xmlns:dc="http://purl.org/dc/elements/1.1/"
   xmlns:cc="http://creativecommons.org/ns#"
   xmlns:rdf="http://www.w3.org/1999/02/22-rdf-syntax-ns#"
   xmlns:svg="http://www.w3.org/2000/svg"
   xmlns="http://www.w3.org/2000/svg"
   version="1.1"
   id="svg2"
   viewBox="0 0 744.09448819 1052.3622047"
   height="297mm"
   width="210mm">
  <defs
     id="defs4">
    <clipPath
       clipPathUnits="userSpaceOnUse"
       id="clipPath3350">
      <path
         d="M 0,256 256,256 256,0 0,0 0,256 Z"
         id="path3352" />
    </clipPath>
  </defs>
  <metadata
     id="metadata7">
    <rdf:RDF>
      <cc:Work
         rdf:about="">
        <dc:format>image/svg+xml</dc:format>
        <dc:type
           rdf:resource="http://purl.org/dc/dcmitype/StillImage" />
        <dc:title></dc:title>
      </cc:Work>
    </rdf:RDF>
  </metadata>
  <g
     id="layer1">
    <g
       id="g3344"
       transform="matrix(1.25,0,0,-1.25,139.99997,432.64101)">
      <g
         id="g3346">
        <g
           id="g3348"
           clip-path="url(#clipPath3350)">
          <g
             id="g3354"
             transform="translate(76.2904,88.7576)">
            <path
               d="m 0,0 c 0.005,-15.48 -12.012,-28.033 -26.84,-28.038 -14.829,-0.005 -26.854,12.54 -26.858,28.02 l 0,0.018 c 0,15.48 12.02,28.029 26.849,28.029 C -12.021,28.029 0,15.48 0,0"
               style="fill:#110f0d;fill-opacity:1;fill-rule:nonzero;stroke:none"
               id="path3356" />
          </g>
          <g
             id="g3358"
             transform="translate(240.1777,74.2479)">
            <path
               d="m 0,0 c -2.982,-0.859 -19.5,-5.544 -21.315,-4.456 -18.553,11.122 -33.364,5.563 -50.722,-1.669 -5.425,-2.26 -10.867,-4.482 -18.693,-7.708 30.96,60.732 11.819,120.312 -58.787,133.634 13.514,3.159 32.4,3.463 47.235,-0.433 C -61.824,108.729 -39.541,92.723 -15.68,49.531 -8.672,35.35 0.75,12.91 0,0"
               style="fill:#ed1f24;fill-opacity:1;fill-rule:nonzero;stroke:none"
               id="path3360" />
          </g>
          <g
             id="g3362"
             transform="translate(15.7802,124.1902)">
            <path
               d="M 0,0 C 10.23,19.808 46.354,24.985 66.682,14.556 86.906,4.18 100.326,-29.298 81.908,-61.775 82.157,-39.002 76.881,-18.121 59.507,-3.434 42.458,10.527 21.156,8.397 0,0"
               style="fill:#3e4ca8;fill-opacity:1;fill-rule:nonzero;stroke:none"
               id="path3364" />
          </g>
          <g
             id="g3366"
             transform="translate(27.8127,155.0588)">
            <path
               d="m 0,0 c 14.279,18.61 32.279,24.029 52.183,22.451 26.198,-2.077 46.116,-14.94 56.776,-39.704 9.948,-23.746 4.821,-54.235 -16.327,-77.838 7.981,30.821 6.363,56.818 -13.976,78.273 C 57.65,4.434 30.922,8.549 0,0"
               style="fill:#49bc39;fill-opacity:1;fill-rule:nonzero;stroke:none"
               id="path3368" />
          </g>
          <path
             d="m 46.643,81.612 5.18,0 0,-5.007 -5.18,0 0,5.007 z m -2.876,19.473 c 1.363,0.878 3.038,1.317 5.025,1.317 2.61,0 4.779,-0.623 6.505,-1.871 1.727,-1.247 2.591,-3.095 2.591,-5.544 0,-1.502 -0.375,-2.767 -1.124,-3.794 -0.437,-0.624 -1.278,-1.421 -2.522,-2.391 l -1.227,-0.953 c -0.668,-0.52 -1.112,-1.126 -1.33,-1.819 -0.139,-0.439 -0.214,-1.121 -0.225,-2.045 l -4.695,0 c 0.069,1.952 0.253,3.301 0.553,4.046 0.299,0.745 1.07,1.602 2.314,2.573 l 1.261,0.987 c 0.415,0.312 0.749,0.652 1.002,1.022 0.461,0.635 0.691,1.335 0.691,2.097 0,0.877 -0.256,1.677 -0.769,2.399 -0.513,0.722 -1.449,1.083 -2.809,1.083 -1.336,0 -2.284,-0.445 -2.843,-1.334 -0.559,-0.889 -0.838,-1.813 -0.838,-2.772 l -5.007,0 c 0.138,3.292 1.287,5.625 3.447,6.999"
             style="fill:#ffffff;fill-opacity:1;fill-rule:nonzero;stroke:none"
             id="path3370" />
        </g>
      </g>
    </g>
  </g>
</svg>
